<svg xmlns="http://www.w3.org/2000/svg" xmlns:xlink="http://www.w3.org/1999/xlink" id="Layer_1" width="40" height="40" x="0" y="0" enable-background="new 0 0 40 40" version="1.1" viewBox="0 0 40 40" xml:space="preserve"><circle cx="20" cy="20" r="20" fill="#C85F5D"/><g><path fill="#FFF" d="M17.424,26.386c-1.754-1.755-2.566-4.093-2.447-6.389h4.258l-6.5-6.496l-6.496,6.496h4.049 c-0.011,2.504,0.927,5.015,2.838,6.926c2.995,2.994,7.451,3.617,11.066,1.892C21.776,29.047,19.276,28.238,17.424,26.386z"/><path fill="#FFF" d="M29.712,20.003c0.011-2.504-0.927-5.015-2.838-6.925c-2.993-2.995-7.451-3.618-11.066-1.892 c2.417-0.231,4.917,0.575,6.768,2.428c1.756,1.755,2.567,4.092,2.449,6.389h-4.258l6.497,6.498l6.499-6.498H29.712z"/></g></svg>